<svg width="28" height="28" viewBox="0 0 28 28" fill="none" xmlns="http://www.w3.org/2000/svg">
<path opacity="0.994" fill-rule="evenodd" clip-rule="evenodd" d="M13.1523 1.72264C16.0868 1.50763 18.2288 2.69253 19.5781 5.27733C19.7899 5.73053 19.9358 6.20445 20.0156 6.69921C20.0942 7.95489 20.1215 9.2127 20.0977 10.4726C21.5783 10.2022 22.6812 10.7126 23.4063 12.0039C23.472 12.1829 23.5267 12.3652 23.5703 12.5508C23.6068 16.4154 23.6068 20.2799 23.5703 24.1445C23.2877 25.2291 22.6042 25.9127 21.5195 26.1953C16.4883 26.2318 11.457 26.2318 6.42578 26.1953C5.34115 25.9127 4.65756 25.2291 4.375 24.1445C4.33854 20.2799 4.33854 16.4154 4.375 12.5508C4.65756 11.4662 5.34115 10.7826 6.42578 10.5C6.89938 10.4726 7.37335 10.4636 7.84766 10.4726C7.83852 9.32404 7.84766 8.1756 7.875 7.02733C8.44031 4.06489 10.1994 2.29667 13.1523 1.72264ZM13.918 3.47264C15.95 3.59909 17.3446 4.60169 18.1016 6.48046C18.1649 6.71545 18.2196 6.95246 18.2656 7.19139C18.3385 8.28378 18.3659 9.37753 18.3477 10.4726C15.431 10.4726 12.5143 10.4726 9.59766 10.4726C9.57945 9.37753 9.60679 8.28378 9.67969 7.19139C10.0237 5.49865 10.999 4.34112 12.6055 3.71874C13.0436 3.59637 13.4811 3.51434 13.918 3.47264ZM13.8086 15.2851C15.1378 15.3836 15.7485 16.0946 15.6406 17.418C15.5304 17.8647 15.2843 18.211 14.9023 18.457C14.8702 19.2427 14.8246 20.0265 14.7656 20.8086C14.4761 21.3677 14.0477 21.5044 13.4805 21.2187C13.338 21.1128 13.2377 20.976 13.1797 20.8086C13.1207 20.0265 13.0751 19.2427 13.043 18.457C12.3533 17.9467 12.1254 17.2722 12.3594 16.4336C12.6446 15.795 13.1277 15.4122 13.8086 15.2851Z" fill="#997A2F"/>
</svg>
