<svg width="28" height="28" viewBox="0 0 28 28" fill="none" xmlns="http://www.w3.org/2000/svg">
<g clip-path="url(#clip0_14_127)">
<path opacity="0.988" fill-rule="evenodd" clip-rule="evenodd" d="M13.5352 -0.0273438C13.8268 -0.0273438 14.1185 -0.0273438 14.4102 -0.0273438C16.181 1.77865 18.3321 2.84506 20.8633 3.17188C21.9563 3.22788 23.0501 3.26434 24.1445 3.28125C24.3724 3.36328 24.5273 3.51823 24.6094 3.74609C24.6459 7.55601 24.6459 11.3659 24.6094 15.1758C24.3526 17.9175 23.3317 20.3238 21.5469 22.3945C20.5811 23.47 19.5147 24.427 18.3477 25.2656C17.0448 26.1633 15.7141 27.0201 14.3555 27.8359C14.1002 27.9453 13.8451 27.9453 13.5898 27.8359C11.6076 26.6901 9.72995 25.3959 7.95703 23.9531C5.84281 22.141 4.41183 19.8897 3.66406 17.1992C3.50146 16.5335 3.39208 15.859 3.33594 15.1758C3.29948 11.3659 3.29948 7.55601 3.33594 3.74609C3.41797 3.51823 3.57292 3.36328 3.80078 3.28125C4.89523 3.26434 5.98899 3.22788 7.08203 3.17188C9.61319 2.84506 11.7643 1.77865 13.5352 -0.0273438ZM13.0977 6.58984C16.243 6.39877 18.6584 7.62016 20.3438 10.2539C21.6198 12.6966 21.6198 15.1393 20.3438 17.582C18.6597 20.2243 16.2443 21.4365 13.0977 21.2188C10.0923 20.7328 8.05974 19.0648 7 16.2148C6.12664 13.0932 6.88319 10.4408 9.26953 8.25781C10.3975 7.35645 11.6735 6.8005 13.0977 6.58984ZM16.9805 11.5117C17.8157 11.4696 18.1347 11.8524 17.9375 12.6602C16.5445 14.1078 15.1318 15.5389 13.6992 16.9531C13.3346 17.2084 12.9701 17.2084 12.6055 16.9531C11.6815 16.0657 10.7974 15.1452 9.95313 14.1914C9.85288 13.4166 10.1901 13.0794 10.9648 13.1797C11.056 13.2344 11.1471 13.2891 11.2383 13.3438C11.868 13.9826 12.506 14.6115 13.1523 15.2305C14.4143 13.9683 15.6904 12.7288 16.9805 11.5117Z" fill="#997A2F"/>
<path opacity="0.979" fill-rule="evenodd" clip-rule="evenodd" d="M13.207 8.17572C16.0373 7.98136 18.0699 9.14807 19.3047 11.6757C20.2516 14.4427 19.6045 16.7487 17.3633 18.5937C15.6027 19.7657 13.7251 19.9844 11.7305 19.2499C9.06079 17.9124 7.92143 15.7522 8.3125 12.7695C8.96869 10.1899 10.6002 8.65861 13.207 8.17572ZM16.9805 11.5117C15.6904 12.7287 14.4143 13.9683 13.1523 15.2304C12.506 14.6114 11.8679 13.9825 11.2383 13.3437C11.1471 13.289 11.056 13.2343 10.9648 13.1796C10.1901 13.0794 9.85288 13.4166 9.95312 14.1913C10.7974 15.1451 11.6815 16.0657 12.6055 16.9531C12.9701 17.2083 13.3346 17.2083 13.6992 16.9531C15.1318 15.5388 16.5445 14.1078 17.9375 12.6601C18.1346 11.8524 17.8157 11.4696 16.9805 11.5117Z" fill="#997A2F"/>
</g>
<defs>
<clipPath id="clip0_14_127">
<rect width="28" height="28" fill="white"/>
</clipPath>
</defs>
</svg>
