<svg width="28" height="28" viewBox="0 0 28 28" fill="none" xmlns="http://www.w3.org/2000/svg">
<g clip-path="url(#clip0_14_177)">
<path d="M8.16667 0C6.00149 0.00247026 3.9257 0.863678 2.39469 2.39469C0.863678 3.9257 0.00247026 6.00149 0 8.16667C0 13.1332 3.35417 18.6667 8.16667 18.6667C12.9792 18.6667 16.3333 13.1332 16.3333 8.16667C16.3309 6.00149 15.4697 3.9257 13.9386 2.39469C12.4076 0.863678 10.3318 0.00247026 8.16667 0V0ZM12.3865 13.587L10.4032 12.348C11.0275 11.4438 11.4493 10.4155 11.6398 9.33333H13.9732C13.794 10.8582 13.2497 12.3173 12.3865 13.587ZM21 1.16667C19.5479 1.14712 18.1241 1.56857 16.9167 2.37533C18.0592 4.09054 18.6682 6.10574 18.6667 8.16667C18.6486 10.7417 17.9654 13.2683 16.6833 15.5015C17.2276 16.1125 17.8917 16.6051 18.6342 16.9489C19.3767 17.2927 20.182 17.4802 21 17.5C24.8605 17.5 28 13.3128 28 8.16667C28.0326 7.23863 27.8738 6.31383 27.5336 5.4498C27.1933 4.58578 26.6789 3.80103 26.0223 3.14441C25.3656 2.48779 24.5809 1.97334 23.7169 1.63309C22.8528 1.29284 21.928 1.13407 21 1.16667ZM23.6973 13.7107L22.1667 11.956C22.8092 11.221 23.2075 10.3045 23.3065 9.33333H25.6398C25.5426 10.9793 24.8526 12.5343 23.6973 13.7107ZM24.9807 28.0723L22.925 26.9698C23.758 25.4182 23.3427 25.0973 21.623 24.115C20.9611 23.8467 20.3633 23.4417 19.8687 22.9264C19.3741 22.4111 18.9939 21.7972 18.753 21.1248C18.6356 20.5836 18.6424 20.0228 18.7728 19.4845C19.4936 19.7114 20.2444 19.829 21 19.8333C21.0292 19.8333 21.056 19.8333 21.0852 19.8333C21.0026 20.0793 20.9822 20.3418 21.0257 20.5975C21.1598 21.1692 21.9473 21.6183 22.7815 22.0955C24.3308 22.974 26.9243 24.4545 24.9818 28.0723H24.9807ZM12.8333 25.6667C12.7606 26.5059 12.4672 27.3109 11.9828 28L9.98317 26.8018C10.2347 26.4648 10.411 26.0777 10.5 25.6667C10.5 25.2537 9.8 24.871 8.81183 24.3775C7.55533 23.7487 5.83333 22.8877 5.83333 21C5.84185 20.8963 5.85784 20.7934 5.88117 20.692C6.62571 20.8968 7.39446 21.0004 8.16667 21H8.19467C8.18533 21.0268 8.16433 21.07 8.15967 21.0898C8.16667 21.4153 8.86667 21.798 9.85483 22.2915C11.1113 22.918 12.8333 23.779 12.8333 25.6667Z" fill="#997A2F"/>
</g>
<defs>
<clipPath id="clip0_14_177">
<rect width="28" height="28" fill="white"/>
</clipPath>
</defs>
</svg>
