<svg width="29" height="28" viewBox="0 0 29 28" fill="none" xmlns="http://www.w3.org/2000/svg">
<g clip-path="url(#clip0_14_170)">
<path opacity="0.989" fill-rule="evenodd" clip-rule="evenodd" d="M4.73828 -0.0273438C7.18101 -0.0273438 9.62368 -0.0273438 12.0664 -0.0273438C12.5573 0.135447 12.8855 0.463572 13.0508 0.957031C16.8425 0.947915 20.6341 0.957031 24.4258 0.984375C25.3927 1.29556 25.9122 1.96092 25.9844 2.98047C26.0382 10.4373 26.02 17.893 25.9297 25.3477C25.6623 26.308 25.0334 26.8276 24.043 26.9062C23.6423 26.9336 23.2413 26.9427 22.8398 26.9336C22.9223 27.4065 22.7582 27.7528 22.3477 27.9727C16.4779 27.9727 10.6081 27.9727 4.73828 27.9727C3.85208 27.7329 3.27786 27.1678 3.01563 26.2773C2.95258 22.1769 2.92524 18.0754 2.9336 13.9727C2.92524 9.86995 2.95258 5.76838 3.01563 1.66797C3.29565 0.79543 3.86987 0.230327 4.73828 -0.0273438ZM13.9805 3.36328C17.207 3.36328 20.4336 3.36328 23.6602 3.36328C23.6602 10.3998 23.6602 17.4362 23.6602 24.4727C23.0757 24.4908 22.4924 24.4726 21.9102 24.418C21.5949 23.6089 21.285 22.7977 20.9805 21.9844C21.3109 21.8364 21.5753 21.6086 21.7734 21.3008C22.0259 20.6239 21.8527 20.0861 21.2539 19.6875C20.859 19.5902 20.4579 19.5264 20.0508 19.4961C19.7956 18.8398 19.5404 18.1836 19.2852 17.5273C19.8494 17.4818 20.4145 17.4545 20.9805 17.4453C21.6838 17.3509 22.0483 16.9498 22.0742 16.2422C22.0542 15.6757 21.7808 15.2929 21.2539 15.0938C20.2896 15.0338 19.3234 14.9882 18.3555 14.957C18.1054 14.2886 17.8502 13.6233 17.5898 12.9609C18.8317 12.958 20.0713 12.9216 21.3086 12.8516C21.9905 12.5356 22.2184 12.016 21.9922 11.293C21.8161 10.8997 21.5153 10.6718 21.0898 10.6094C19.613 10.6002 18.1364 10.5729 16.6602 10.5273C16.4101 9.8589 16.1548 9.19357 15.8945 8.53125C17.6828 8.52884 19.4693 8.49242 21.2539 8.42188C21.9802 8.08976 22.2263 7.53375 21.9922 6.75391C21.786 6.37241 21.467 6.14458 21.0352 6.07031C19.0114 6.06118 16.988 6.03384 14.9648 5.98828C14.6256 5.11623 14.2975 4.24123 13.9805 3.36328Z" fill="#997A2F"/>
</g>
<defs>
<clipPath id="clip0_14_170">
<rect width="28" height="28" fill="white" transform="translate(0.5)"/>
</clipPath>
</defs>
</svg>
