<svg width="24" height="24" viewBox="0 0 24 24" fill="none" xmlns="http://www.w3.org/2000/svg">
<g id="Iconly/Bold/Call">
<g id="Call">
<path id="Call_2" d="M21.3989 16.6941C20.8437 16.1261 18.4411 14.2161 17.8449 14.0911C17.1817 13.9511 16.6566 14.2561 16.1924 14.5231C15.7153 14.7981 15.3042 15.0361 14.786 14.8481C12.1303 13.7641 10.2338 11.8682 9.15349 9.22321C8.96244 8.69721 9.19951 8.28422 9.47458 7.80723C9.74166 7.34424 10.0427 6.81824 9.9057 6.15526C9.78167 5.55927 7.87214 3.1573 7.30298 2.60231C6.92688 2.23632 6.54277 2.03432 6.14967 2.00132C4.66626 1.93932 2.83375 4.07529 2.54267 4.54428C1.81447 5.54727 1.81947 6.87824 2.55567 8.49422C4.32816 12.8341 11.104 19.61 15.4952 21.436C16.3045 21.812 17.0457 22 17.7109 22C18.363 22 18.9422 21.819 19.4403 21.461C19.8154 21.247 22.0531 19.349 21.999 17.8381C21.967 17.4521 21.765 17.0681 21.3989 16.6941Z" fill="#1D1919" fill-opacity="0.74"/>
</g>
</g>
</svg>
