<svg width="219" height="39" viewBox="0 0 219 39" fill="none" xmlns="http://www.w3.org/2000/svg">
<path d="M12.366 15H7.218V14.37C8.28 14.208 8.37 13.992 8.082 13.2C7.902 12.66 7.632 11.886 7.362 11.166H3.906C3.708 11.724 3.474 12.372 3.258 13.092C2.988 13.956 3.042 14.208 4.356 14.37V15H0.324V14.37C1.512 14.226 1.746 14.028 2.34 12.516L6.03 3.264L6.948 3.03C8.1 6.18 9.216 9.312 10.386 12.408C10.998 13.992 11.214 14.226 12.366 14.37V15ZM7.02 10.212L5.688 6.306H5.634C5.13 7.62 4.68 8.934 4.212 10.212H7.02ZM24.779 14.208L24.293 18.222H23.591L23.285 16.332C23.123 15.234 22.889 15 21.971 15H16.031C15.221 15 14.987 15.324 14.663 16.548L14.195 18.222H13.493L13.565 14.208H14.591C14.825 14.208 14.969 14.118 15.095 13.83C15.671 12.642 16.337 9.798 16.337 5.136C16.337 4.38 16.265 4.164 15.257 4.02L14.591 3.93V3.3H24.635V3.93C23.177 4.038 23.069 4.11 23.069 5.892V13.272C23.069 14.1 23.141 14.208 23.627 14.208H24.779ZM20.657 13.056V5.082C20.657 4.128 20.657 4.074 19.955 4.074H18.047C17.345 4.074 17.327 4.128 17.327 4.83C17.327 7.098 17.093 11.058 16.427 13.65C16.319 14.082 16.337 14.208 16.841 14.208H19.523C20.423 14.208 20.657 14.064 20.657 13.056ZM32.4778 8.646V8.718C34.5658 8.97 35.9338 9.816 35.9338 11.526C35.9338 12.732 35.2678 13.668 34.2598 14.226C33.3418 14.748 31.9558 15 30.4618 15H25.8898V14.37C27.2758 14.244 27.4378 14.118 27.4378 12.588V5.712C27.4378 4.164 27.2758 4.056 25.9978 3.93V3.3H31.2538C32.6218 3.3 33.5218 3.48 34.2238 3.912C34.8718 4.344 35.2678 5.082 35.2678 5.964C35.2678 7.692 33.7738 8.394 32.4778 8.646ZM29.8138 8.466H30.2098C31.9558 8.466 32.7118 7.782 32.7118 6.288C32.7118 4.65 31.7578 4.038 30.7858 4.038C30.3898 4.038 30.0838 4.164 29.9758 4.272C29.8498 4.398 29.8138 4.668 29.8138 5.046V8.466ZM29.8138 9.186V12.552C29.8138 13.884 30.1738 14.262 31.1278 14.244C32.1358 14.226 33.2698 13.488 33.2698 11.724C33.2698 10.032 32.2078 9.186 30.1738 9.186H29.8138ZM44.0236 3.048C47.2996 3.048 49.9816 5.478 49.9816 9.024C49.9816 12.912 47.1916 15.27 43.7896 15.27C40.1896 15.27 37.6876 12.624 37.6876 9.186C37.6876 6.09 39.9016 3.048 44.0236 3.048ZM43.6636 3.804C41.8636 3.804 40.4596 5.712 40.4596 8.826C40.4596 11.922 41.8096 14.514 44.1136 14.514C45.8236 14.514 47.2096 12.84 47.2096 9.528C47.2096 5.946 45.7696 3.804 43.6636 3.804ZM62.8282 15H60.7582C59.4262 15 58.9042 14.442 58.4002 13.344C58.1482 12.822 57.7882 11.904 57.3922 10.842C56.8702 9.402 56.1502 9.042 55.2502 9.06V12.444C55.2502 14.172 55.3762 14.262 56.7082 14.37V15H51.3262V14.37C52.6762 14.262 52.8382 14.172 52.8382 12.48V5.856C52.8382 4.128 52.6762 4.038 51.3262 3.93V3.3H56.7082V3.93C55.3582 4.038 55.2502 4.128 55.2502 5.856V8.358C56.1322 8.34 56.7982 8.196 57.4102 7.584C57.9502 7.08 58.3282 6.324 58.9222 4.92C59.5162 3.588 60.1822 3.03 61.0462 3.03C61.7302 3.012 62.1442 3.444 62.1442 3.93C62.1442 4.362 61.7302 4.56 61.3702 4.578H61.0462C60.3622 4.578 59.9482 4.902 59.1562 6.486C58.4722 7.854 57.6982 8.376 57.4102 8.52V8.574C58.3822 8.808 59.1202 9.276 59.7322 10.446C60.0202 10.986 60.4342 12.012 60.9742 13.074C61.4782 14.1 61.9822 14.28 62.8282 14.37V15ZM75.4715 15H70.3235V14.37C71.3855 14.208 71.4755 13.992 71.1875 13.2C71.0075 12.66 70.7375 11.886 70.4675 11.166H67.0115C66.8135 11.724 66.5795 12.372 66.3635 13.092C66.0935 13.956 66.1475 14.208 67.4615 14.37V15H63.4295V14.37C64.6175 14.226 64.8515 14.028 65.4455 12.516L69.1355 3.264L70.0535 3.03C71.2055 6.18 72.3215 9.312 73.4915 12.408C74.1035 13.992 74.3195 14.226 75.4715 14.37V15ZM70.1255 10.212L68.7935 6.306H68.7395C68.2355 7.62 67.7855 8.934 67.3175 10.212H70.1255ZM85.672 6.342L85.024 6.378C84.808 5.442 84.556 4.83 84.232 4.506C83.908 4.182 83.458 4.092 82.396 4.092H81.586V12.606C81.586 14.136 81.766 14.244 83.35 14.37V15H77.482V14.37C78.994 14.244 79.174 14.136 79.174 12.606V4.092H78.562C77.068 4.092 76.744 4.272 76.492 4.578C76.186 4.884 75.97 5.496 75.736 6.396H75.07C75.142 5.082 75.25 3.768 75.286 2.85H75.736C76.006 3.246 76.24 3.3 76.762 3.3H83.998C84.466 3.3 84.718 3.192 85.024 2.85H85.474C85.492 3.606 85.582 5.19 85.672 6.342ZM101.268 11.652L101.898 11.922C101.664 12.804 101.196 14.172 100.89 14.802C100.422 14.91 98.7656 15.27 97.5416 15.27C92.7536 15.27 90.7736 12.156 90.7736 9.294C90.7736 5.586 93.5996 3.03 97.9016 3.03C99.3596 3.03 100.692 3.408 101.178 3.498C101.34 4.488 101.466 5.316 101.592 6.468L100.926 6.594C100.332 4.47 98.9456 3.84 97.5596 3.84C94.9496 3.84 93.5096 6.288 93.5096 8.952C93.5096 12.246 95.2916 14.424 97.7396 14.424C99.2336 14.424 100.35 13.47 101.268 11.652ZM111.812 11.886L112.46 12.012C112.334 12.822 111.974 14.46 111.83 15H102.65V14.37C104.18 14.244 104.36 14.136 104.36 12.606V5.694C104.36 4.128 104.18 4.038 102.902 3.93V3.3H111.38C111.398 3.624 111.488 4.884 111.56 6L110.894 6.09C110.732 5.46 110.498 4.866 110.174 4.542C109.868 4.218 109.382 4.092 108.374 4.092H107.51C106.844 4.092 106.772 4.128 106.772 4.722V8.538H107.978C109.49 8.538 109.742 8.448 109.976 7.188H110.624V10.806H109.976C109.742 9.51 109.508 9.438 107.978 9.438H106.772V12.552C106.772 13.416 106.844 13.866 107.204 14.046C107.528 14.19 108.14 14.226 108.824 14.226C109.76 14.226 110.39 14.1 110.804 13.65C111.164 13.254 111.488 12.678 111.812 11.886ZM113.397 3.3H118.365C119.787 3.3 120.795 3.498 121.515 4.002C122.361 4.578 122.847 5.478 122.847 6.648C122.847 9.06 121.065 10.158 119.157 10.392C118.887 10.428 118.617 10.428 118.419 10.428L117.195 10.122V12.606C117.195 14.136 117.357 14.262 118.887 14.388V15H113.307V14.388C114.657 14.262 114.819 14.136 114.819 12.606V5.712C114.819 4.182 114.657 4.056 113.397 3.93V3.3ZM117.195 4.74V9.42C117.411 9.51 117.789 9.6 118.167 9.6C118.815 9.6 120.255 9.132 120.255 6.702C120.255 4.668 119.121 4.002 118.023 4.002C117.681 4.002 117.465 4.092 117.357 4.182C117.231 4.29 117.195 4.47 117.195 4.74ZM132.632 6.072L131.966 6.198C131.732 5.478 131.624 5.01 131.354 4.632C131.066 4.218 130.778 4.092 129.806 4.092H128.744C128.042 4.092 128.024 4.092 128.024 4.758V12.498C128.024 14.136 128.15 14.28 129.716 14.388V15H124.136V14.388C125.468 14.28 125.612 14.136 125.612 12.498V5.766C125.612 4.11 125.468 4.02 124.136 3.912V3.3H132.47C132.488 3.678 132.524 5.172 132.632 6.072ZM139.115 15H133.697V14.37C135.047 14.244 135.209 14.118 135.209 12.606V5.712C135.209 4.164 135.047 4.056 133.697 3.93V3.3H139.115V3.93C137.765 4.056 137.621 4.164 137.621 5.712V12.606C137.621 14.118 137.765 14.244 139.115 14.37V15ZM153.28 15H147.79V14.37C149.23 14.262 149.374 14.118 149.374 12.444V8.214C149.374 7.566 149.374 6.774 149.464 5.046H149.41L144.784 14.046C144.64 14.316 144.622 14.514 144.622 14.748V15H140.464V14.37C141.868 14.262 142.03 14.082 142.03 12.372V5.928C142.03 4.182 141.868 4.038 140.464 3.93V3.3H145.846V3.93C144.532 4.038 144.388 4.146 144.388 5.856V9.528C144.388 10.248 144.388 11.202 144.298 13.11H144.334L148.96 4.164C149.104 3.93 149.158 3.696 149.158 3.552V3.3H153.298V3.93C151.894 4.038 151.732 4.218 151.732 5.838V12.444C151.732 14.118 151.894 14.262 153.28 14.37V15ZM147.034 2.58C145.558 2.58 144.622 1.95 144.622 0.887999C144.622 0.473999 144.892 0.0599992 145.378 0.0599992C145.954 0.0599992 146.134 0.563999 146.098 0.905999C146.098 1.392 146.332 1.878 147.052 1.878C147.772 1.878 147.988 1.392 147.988 0.905999C147.952 0.563999 148.132 0.0599992 148.708 0.0599992C149.212 0.0599992 149.464 0.473999 149.464 0.887999C149.464 1.95 148.528 2.58 147.034 2.58ZM173.296 15H167.968V14.37C169.318 14.226 169.408 14.1 169.408 12.444L169.372 5.514H169.282L165.304 14.874H164.8L161.128 5.694H161.056L160.822 10.392C160.75 11.886 160.768 12.732 160.84 13.29C160.912 14.1 161.254 14.262 162.46 14.37V15H158.14V14.37C159.148 14.28 159.472 13.974 159.598 13.326C159.706 12.768 159.832 11.814 159.976 9.924L160.264 6.36C160.408 4.326 160.282 4.074 158.734 3.93V3.3H162.46L165.916 11.184L169.444 3.3H173.08V3.93C171.64 4.074 171.568 4.218 171.604 5.712L171.766 12.444C171.802 14.1 171.892 14.226 173.296 14.37V15ZM186.161 15H181.013V14.37C182.075 14.208 182.165 13.992 181.877 13.2C181.697 12.66 181.427 11.886 181.157 11.166H177.701C177.503 11.724 177.269 12.372 177.053 13.092C176.783 13.956 176.837 14.208 178.151 14.37V15H174.119V14.37C175.307 14.226 175.541 14.028 176.135 12.516L179.825 3.264L180.743 3.03C181.895 6.18 183.011 9.312 184.181 12.408C184.793 13.992 185.009 14.226 186.161 14.37V15ZM180.815 10.212L179.483 6.306H179.429C178.925 7.62 178.475 8.934 178.007 10.212H180.815ZM192.513 8.502V8.592C194.295 8.826 195.807 9.69 195.807 11.67C195.807 14.19 193.359 15.27 190.839 15.27C189.813 15.27 188.643 15 187.923 14.478C187.473 14.136 187.095 13.596 187.095 13.11C187.095 12.588 187.491 12.3 187.833 12.3C188.175 12.3 188.463 12.588 188.697 12.966C189.219 14.028 189.975 14.532 190.929 14.55C191.919 14.568 193.089 13.884 193.089 11.814C193.089 10.158 192.189 9.114 191.181 9.114C190.695 9.114 190.227 9.33 189.669 9.33C189.165 9.33 188.859 9.006 188.859 8.646C188.859 8.268 189.165 7.962 189.687 7.962C190.245 7.962 190.695 8.178 191.199 8.16C191.811 8.142 192.711 7.548 192.711 6.144C192.711 4.65 191.973 3.786 190.839 3.786C189.507 3.786 188.733 5.136 188.337 6.45L187.689 6.27C187.833 5.658 187.959 4.272 188.031 3.714C188.355 3.606 188.625 3.516 189.111 3.372C189.507 3.264 190.515 3.03 191.343 3.03C193.917 3.03 195.231 4.182 195.231 5.838C195.231 6.702 194.709 7.422 194.223 7.764C193.737 8.07 193.197 8.322 192.513 8.502ZM208.103 3.3V3.93C206.825 4.128 206.627 4.398 206.033 5.694C205.385 7.152 203.621 11.13 202.991 12.498C201.857 14.964 200.759 15.45 199.751 15.45C199.031 15.45 198.311 15.018 198.311 14.316C198.329 13.956 198.527 13.686 198.779 13.542C199.049 13.398 199.409 13.398 199.859 13.668C200.147 13.866 200.543 14.01 200.812 14.01C201.263 14.01 201.785 13.47 201.785 12.786C201.785 12.426 201.641 12.03 201.371 11.472C200.885 10.482 198.671 5.91 198.203 5.01C197.843 4.326 197.681 4.092 196.511 3.93V3.3H201.551V3.93L200.993 4.056C200.633 4.164 200.579 4.362 200.812 4.866L203.261 10.122C203.945 8.448 204.593 6.918 205.187 5.262C205.457 4.488 205.421 4.2 204.845 4.074L204.197 3.93V3.3H208.103ZM208.969 3.3H213.937C215.359 3.3 216.367 3.498 217.087 4.002C217.933 4.578 218.419 5.478 218.419 6.648C218.419 9.06 216.637 10.158 214.729 10.392C214.459 10.428 214.189 10.428 213.991 10.428L212.767 10.122V12.606C212.767 14.136 212.929 14.262 214.459 14.388V15H208.879V14.388C210.229 14.262 210.391 14.136 210.391 12.606V5.712C210.391 4.182 210.229 4.056 208.969 3.93V3.3ZM212.767 4.74V9.42C212.983 9.51 213.361 9.6 213.739 9.6C214.387 9.6 215.827 9.132 215.827 6.702C215.827 4.668 214.693 4.002 213.595 4.002C213.253 4.002 213.037 4.092 212.929 4.182C212.803 4.29 212.767 4.47 212.767 4.74Z" fill="#1D1919"/>
<path d="M9.73 34H6.076V33.608C7.196 33.524 7.308 33.468 7.308 32.236V26.314C7.308 25.502 7.238 25.39 6.468 25.39H3.822C3.038 25.39 2.954 25.502 2.954 26.384V32.236C2.954 33.44 3.08 33.524 4.186 33.608V34H0.546V33.608C1.652 33.524 1.764 33.454 1.764 32.236V26.664C1.764 25.432 1.652 25.376 0.56 25.292V24.9H9.716V25.292C8.624 25.376 8.498 25.446 8.498 26.664V32.236C8.498 33.468 8.624 33.524 9.73 33.608V34ZM16.2309 28.68L17.5189 27.924C17.7709 27.784 18.0369 27.714 18.2049 27.714C19.7589 27.714 20.6829 28.974 20.6829 30.36C20.6829 32.474 19.0169 33.832 17.1969 34.168C16.7909 34.154 16.4129 34.014 16.2309 33.916V35.75C16.2309 36.814 16.3289 36.884 17.4209 36.982V37.36H14.1029V36.982C14.9989 36.898 15.1249 36.814 15.1249 35.89V29.562C15.1249 28.652 15.0689 28.624 14.2009 28.512V28.176C14.7889 28.078 15.5729 27.84 16.2309 27.574V28.68ZM16.2309 29.142V32.936C16.5389 33.258 17.0709 33.482 17.5469 33.482C18.7229 33.482 19.5069 32.474 19.5069 30.892C19.5069 29.394 18.6529 28.554 17.6309 28.554C17.1829 28.554 16.6089 28.862 16.2309 29.142ZM30.9207 33.454L29.7307 34.168C29.5207 34.168 29.2267 34.042 29.0727 33.902C28.8907 33.706 28.8067 33.51 28.7367 33.272C28.1767 33.65 27.5047 34.168 27.0847 34.168C26.0907 34.168 25.4047 33.342 25.4047 32.46C25.4047 31.774 25.7687 31.34 26.5387 31.074C27.3787 30.794 28.4007 30.416 28.7087 30.164V29.912C28.7087 28.904 28.2327 28.33 27.5327 28.33C27.2527 28.33 27.0427 28.442 26.9027 28.61C26.7207 28.792 26.5947 29.1 26.4827 29.534C26.4267 29.758 26.2727 29.856 26.0767 29.856C25.8247 29.856 25.4607 29.576 25.4607 29.254C25.4607 29.044 25.6427 28.89 25.9087 28.694C26.3007 28.414 27.2107 27.868 28.0087 27.714C28.4287 27.714 28.8487 27.84 29.1567 28.092C29.6467 28.498 29.7867 29.072 29.7867 29.8V32.404C29.7867 33.034 30.0387 33.244 30.2767 33.244C30.4447 33.244 30.6407 33.174 30.7807 33.09L30.9207 33.454ZM28.7087 32.824V30.64C28.4147 30.794 27.7427 31.088 27.4487 31.228C26.9027 31.48 26.5947 31.746 26.5947 32.25C26.5947 32.978 27.1547 33.328 27.5887 33.328C27.9527 33.314 28.4427 33.076 28.7087 32.824ZM39.1845 30.64V30.668C40.2065 30.794 40.9625 31.242 40.9625 32.18C40.9625 33.622 39.3385 34 37.8545 34H35.0965V33.636C36.0205 33.566 36.0905 33.468 36.0905 32.586V29.24C36.0905 28.386 36.0205 28.274 35.1665 28.204V27.882H38.4705C39.7025 27.882 40.5425 28.274 40.5425 29.24C40.5425 30.15 39.7585 30.486 39.1845 30.64ZM37.1825 30.486H37.8965C38.7645 30.486 39.3665 30.178 39.3665 29.394C39.3665 28.624 38.7785 28.316 37.9665 28.316C37.2385 28.316 37.1825 28.386 37.1825 28.736V30.486ZM37.1825 30.934V32.586C37.1825 33.426 37.4625 33.552 38.0925 33.552C38.9465 33.552 39.7025 33.118 39.7025 32.222C39.7025 31.298 38.9745 30.934 37.9525 30.934H37.1825ZM48.8171 27.714C50.5531 27.714 51.8551 29.1 51.8551 30.836C51.8551 33.09 50.2031 34.168 48.8171 34.168C46.8991 34.168 45.7511 32.628 45.7511 31.074C45.7511 28.764 47.5431 27.714 48.8171 27.714ZM48.6771 28.176C47.8091 28.176 47.0531 29.044 47.0531 30.626C47.0531 32.39 47.8231 33.706 48.9711 33.706C49.8391 33.706 50.5531 33.062 50.5531 31.144C50.5531 29.506 49.8951 28.176 48.6771 28.176ZM69.9197 34H67.0917V33.636C67.8337 33.566 67.9177 33.454 67.9177 32.572V31.004H65.2017V32.572C65.2017 33.482 65.2717 33.566 65.9997 33.636V34H63.1717V33.636C64.0397 33.566 64.0957 33.468 64.0957 32.572V29.184C64.0957 28.386 64.0537 28.302 63.1437 28.218V27.882H65.9857V28.218C65.2717 28.302 65.2017 28.4 65.2017 29.184V30.472H67.9177V29.184C67.9177 28.4 67.8617 28.302 67.0637 28.218V27.882H69.8777V28.218C69.0797 28.302 69.0097 28.386 69.0097 29.184V32.572C69.0097 33.468 69.0937 33.566 69.9197 33.636V34ZM79.9836 33.454L78.7936 34.168C78.5836 34.168 78.2896 34.042 78.1356 33.902C77.9536 33.706 77.8696 33.51 77.7996 33.272C77.2396 33.65 76.5676 34.168 76.1476 34.168C75.1536 34.168 74.4676 33.342 74.4676 32.46C74.4676 31.774 74.8316 31.34 75.6016 31.074C76.4416 30.794 77.4636 30.416 77.7716 30.164V29.912C77.7716 28.904 77.2956 28.33 76.5956 28.33C76.3156 28.33 76.1056 28.442 75.9656 28.61C75.7836 28.792 75.6576 29.1 75.5456 29.534C75.4896 29.758 75.3356 29.856 75.1396 29.856C74.8876 29.856 74.5236 29.576 74.5236 29.254C74.5236 29.044 74.7056 28.89 74.9716 28.694C75.3636 28.414 76.2736 27.868 77.0716 27.714C77.4916 27.714 77.9116 27.84 78.2196 28.092C78.7096 28.498 78.8496 29.072 78.8496 29.8V32.404C78.8496 33.034 79.1016 33.244 79.3396 33.244C79.5076 33.244 79.7036 33.174 79.8436 33.09L79.9836 33.454ZM77.7716 32.824V30.64C77.4776 30.794 76.8056 31.088 76.5116 31.228C75.9656 31.48 75.6576 31.746 75.6576 32.25C75.6576 32.978 76.2176 33.328 76.6516 33.328C77.0156 33.314 77.5056 33.076 77.7716 32.824ZM96.1959 29.618L95.8179 29.66C95.7339 29.226 95.6639 28.918 95.5379 28.68C95.3839 28.428 95.1319 28.33 94.6419 28.33H94.0259V32.656C94.0259 33.44 94.0959 33.552 95.0479 33.636V34H91.8979V33.636C92.8499 33.552 92.9199 33.44 92.9199 32.656V28.33H92.2479C91.8279 28.33 91.5759 28.4 91.4219 28.694C91.2959 28.932 91.2119 29.198 91.0859 29.674L90.7079 29.618C90.7779 29.016 90.8059 28.386 90.8199 27.882H96.1819C96.1679 28.386 96.1819 29.016 96.1959 29.618ZM104.63 30.64V30.668C105.652 30.794 106.408 31.242 106.408 32.18C106.408 33.622 104.784 34 103.3 34H100.542V33.636C101.466 33.566 101.536 33.468 101.536 32.586V29.24C101.536 28.386 101.466 28.274 100.612 28.204V27.882H103.916C105.148 27.882 105.988 28.274 105.988 29.24C105.988 30.15 105.204 30.486 104.63 30.64ZM102.628 30.486H103.342C104.21 30.486 104.812 30.178 104.812 29.394C104.812 28.624 104.224 28.316 103.412 28.316C102.684 28.316 102.628 28.386 102.628 28.736V30.486ZM102.628 30.934V32.586C102.628 33.426 102.908 33.552 103.538 33.552C104.392 33.552 105.148 33.118 105.148 32.222C105.148 31.298 104.42 30.934 103.398 30.934H102.628ZM114.262 27.714C115.998 27.714 117.3 29.1 117.3 30.836C117.3 33.09 115.648 34.168 114.262 34.168C112.344 34.168 111.196 32.628 111.196 31.074C111.196 28.764 112.988 27.714 114.262 27.714ZM114.122 28.176C113.254 28.176 112.498 29.044 112.498 30.626C112.498 32.39 113.268 33.706 114.416 33.706C115.284 33.706 115.998 33.062 115.998 31.144C115.998 29.506 115.34 28.176 114.122 28.176ZM124.722 34H121.656V33.636C122.538 33.552 122.636 33.454 122.636 32.488V29.688C122.636 28.75 122.566 28.694 121.754 28.568V28.232C122.454 28.12 123.126 27.938 123.742 27.686V32.488C123.742 33.454 123.826 33.552 124.722 33.636V34ZM121.894 26.468C121.544 26.468 121.236 26.146 121.236 25.796C121.236 25.404 121.544 25.096 121.908 25.096C122.272 25.096 122.566 25.404 122.566 25.796C122.566 26.146 122.272 26.468 121.894 26.468ZM124.26 26.468C123.896 26.468 123.588 26.146 123.588 25.796C123.588 25.404 123.896 25.096 124.274 25.096C124.638 25.096 124.918 25.404 124.918 25.796C124.918 26.146 124.638 26.468 124.26 26.468ZM135.804 27.882V28.218C134.908 28.302 134.838 28.4 134.838 29.072V32.684C134.838 33.468 134.894 33.552 135.79 33.636V34H132.948V33.636C133.69 33.552 133.774 33.454 133.774 32.698V30.71C133.774 30.332 133.774 29.828 133.83 28.778H133.802L131.268 33.468C131.184 33.622 131.142 33.762 131.142 33.902V34H128.972V33.636C129.84 33.552 129.91 33.426 129.91 32.586V29.212C129.91 28.386 129.854 28.302 128.972 28.218V27.882H131.87V28.218C131.016 28.302 130.974 28.386 130.974 29.198V30.794C130.974 31.27 130.974 31.956 130.918 33.048H130.946L133.536 28.288C133.606 28.148 133.634 28.05 133.634 27.98V27.882H135.804ZM132.416 26.398C132.976 26.398 133.158 26.146 133.13 25.922C133.13 25.838 133.102 25.74 133.088 25.67C132.976 25.39 133.172 25.068 133.522 25.068C133.83 25.068 134.04 25.362 134.04 25.712C134.04 26.398 133.396 26.888 132.416 26.888C131.352 26.888 130.792 26.398 130.792 25.712C130.792 25.39 131.002 25.068 131.324 25.068C131.702 25.068 131.828 25.418 131.758 25.67C131.73 25.74 131.716 25.838 131.702 25.922C131.674 26.174 131.898 26.398 132.416 26.398ZM152.061 32.446L152.299 32.74C151.683 33.552 150.745 34.168 149.919 34.168C148.155 34.168 147.119 32.74 147.119 31.242C147.119 30.164 147.581 29.226 148.519 28.498C149.247 27.938 150.087 27.714 150.633 27.714C151.193 27.714 151.655 27.896 151.879 28.078C152.061 28.232 152.103 28.358 152.103 28.512C152.103 28.806 151.795 29.114 151.641 29.114C151.571 29.114 151.501 29.072 151.375 28.96C150.955 28.568 150.465 28.386 149.975 28.386C149.051 28.386 148.239 29.156 148.239 30.626C148.239 32.572 149.569 33.216 150.353 33.216C150.955 33.216 151.417 33.048 152.061 32.446ZM162.201 29.618L161.823 29.66C161.739 29.226 161.669 28.918 161.543 28.68C161.389 28.428 161.137 28.33 160.647 28.33H160.031V32.656C160.031 33.44 160.101 33.552 161.053 33.636V34H157.903V33.636C158.855 33.552 158.925 33.44 158.925 32.656V28.33H158.253C157.833 28.33 157.581 28.4 157.427 28.694C157.301 28.932 157.217 29.198 157.091 29.674L156.713 29.618C156.783 29.016 156.811 28.386 156.825 27.882H162.187C162.173 28.386 162.187 29.016 162.201 29.618ZM169.684 27.714C171.42 27.714 172.722 29.1 172.722 30.836C172.722 33.09 171.07 34.168 169.684 34.168C167.766 34.168 166.618 32.628 166.618 31.074C166.618 28.764 168.41 27.714 169.684 27.714ZM169.544 28.176C168.676 28.176 167.92 29.044 167.92 30.626C167.92 32.39 168.69 33.706 169.838 33.706C170.706 33.706 171.42 33.062 171.42 31.144C171.42 29.506 170.762 28.176 169.544 28.176ZM179.173 28.68L180.461 27.924C180.713 27.784 180.979 27.714 181.147 27.714C182.701 27.714 183.625 28.974 183.625 30.36C183.625 32.474 181.959 33.832 180.139 34.168C179.733 34.154 179.355 34.014 179.173 33.916V35.75C179.173 36.814 179.271 36.884 180.363 36.982V37.36H177.045V36.982C177.941 36.898 178.067 36.814 178.067 35.89V29.562C178.067 28.652 178.011 28.624 177.143 28.512V28.176C177.731 28.078 178.515 27.84 179.173 27.574V28.68ZM179.173 29.142V32.936C179.481 33.258 180.013 33.482 180.489 33.482C181.665 33.482 182.449 32.474 182.449 30.892C182.449 29.394 181.595 28.554 180.573 28.554C180.125 28.554 179.551 28.862 179.173 29.142ZM191.453 27.714C193.189 27.714 194.491 29.1 194.491 30.836C194.491 33.09 192.839 34.168 191.453 34.168C189.535 34.168 188.387 32.628 188.387 31.074C188.387 28.764 190.179 27.714 191.453 27.714ZM191.313 28.176C190.445 28.176 189.689 29.044 189.689 30.626C189.689 32.39 190.459 33.706 191.607 33.706C192.475 33.706 193.189 33.062 193.189 31.144C193.189 29.506 192.531 28.176 191.313 28.176ZM205.622 34H202.794V33.636C203.536 33.566 203.62 33.454 203.62 32.572V31.004H200.904V32.572C200.904 33.482 200.974 33.566 201.702 33.636V34H198.874V33.636C199.742 33.566 199.798 33.468 199.798 32.572V29.184C199.798 28.386 199.756 28.302 198.846 28.218V27.882H201.688V28.218C200.974 28.302 200.904 28.4 200.904 29.184V30.472H203.62V29.184C203.62 28.4 203.564 28.302 202.766 28.218V27.882H205.58V28.218C204.782 28.302 204.712 28.386 204.712 29.184V32.572C204.712 33.468 204.796 33.566 205.622 33.636V34ZM211.583 26.496C211.219 26.496 210.883 26.16 210.883 25.782C210.883 25.362 211.219 25.054 211.597 25.054C211.989 25.054 212.297 25.362 212.297 25.782C212.297 26.16 211.989 26.496 211.583 26.496ZM213.221 34H210.141V33.636C211.023 33.552 211.121 33.468 211.121 32.516V29.632C211.121 28.764 211.079 28.708 210.239 28.568V28.232C210.953 28.12 211.611 27.938 212.227 27.686V32.516C212.227 33.468 212.325 33.552 213.221 33.636V34Z" fill="#1D1919"/>
</svg>
