<svg width="84" height="84" viewBox="0 0 84 84" fill="none" xmlns="http://www.w3.org/2000/svg">
<circle cx="42" cy="42" r="41" fill="white" stroke="#997A2F" stroke-width="2"/>
<g clip-path="url(#clip0_144_417)">
<path d="M58.3382 30.0158L36.4582 51.8943C36.3111 52.042 36.1362 52.1592 35.9437 52.2392C35.7512 52.3191 35.5448 52.3603 35.3364 52.3603C35.1279 52.3603 34.9215 52.3191 34.729 52.2392C34.5365 52.1592 34.3617 52.042 34.2146 51.8943L25.7532 43.4251C25.6061 43.2774 25.4313 43.1602 25.2388 43.0802C25.0463 43.0003 24.8399 42.9591 24.6315 42.9591C24.423 42.9591 24.2166 43.0003 24.0241 43.0802C23.8316 43.1602 23.6568 43.2774 23.5097 43.4251C23.362 43.5722 23.2448 43.747 23.1648 43.9395C23.0849 44.132 23.0437 44.3384 23.0437 44.5469C23.0437 44.7553 23.0849 44.9617 23.1648 45.1542C23.2448 45.3467 23.362 45.5216 23.5097 45.6687L31.9742 54.1316C32.8671 55.0228 34.0771 55.5234 35.3387 55.5234C36.6003 55.5234 37.8104 55.0228 38.7033 54.1316L60.5818 32.2578C60.7293 32.1107 60.8463 31.936 60.9261 31.7437C61.0059 31.5513 61.047 31.3451 61.047 31.1368C61.047 30.9286 61.0059 30.7223 60.9261 30.53C60.8463 30.3376 60.7293 30.1629 60.5818 30.0158C60.4347 29.8681 60.2599 29.7509 60.0674 29.671C59.8749 29.591 59.6685 29.5499 59.46 29.5499C59.2516 29.5499 59.0452 29.591 58.8527 29.671C58.6602 29.7509 58.4854 29.8681 58.3382 30.0158Z" fill="#997A2F"/>
</g>
<defs>
<clipPath id="clip0_144_417">
<rect width="38" height="38" fill="white" transform="translate(23 23)"/>
</clipPath>
</defs>
</svg>
