<svg width="28" height="29" viewBox="0 0 28 29" fill="none" xmlns="http://www.w3.org/2000/svg">
<g id="Iconly/Bold/Calling">
<g id="Calling">
<path id="Calling_2" fill-rule="evenodd" clip-rule="evenodd" d="M17.2435 2.83973C16.7926 2.7829 16.3873 3.11386 16.3383 3.56405C16.2882 4.01424 16.6133 4.41874 17.062 4.46889C20.7515 4.88008 23.6183 7.74503 24.0325 11.4379C24.0804 11.8569 24.4344 12.1667 24.8463 12.1667C24.8764 12.1667 24.9075 12.1645 24.9387 12.1611C25.3885 12.111 25.7125 11.7054 25.6613 11.2541C25.1603 6.7945 21.699 3.33338 17.2435 2.83973ZM20.4325 11.4589C20.5145 11.8776 20.8794 12.1667 21.2907 12.1667C21.3466 12.1667 21.4025 12.1608 21.4595 12.1512C21.9338 12.0573 22.2429 11.5981 22.1502 11.1234C21.677 8.69411 19.8025 6.8204 17.3763 6.34692C16.9044 6.26483 16.4432 6.56343 16.3493 7.03929C16.2577 7.51397 16.568 7.97436 17.0411 8.06597C18.7659 8.40145 20.0961 9.73386 20.4325 11.4589ZM18.9027 17.4376C19.4417 17.1279 20.0504 16.7782 20.8183 16.941C21.5138 17.0872 24.3161 19.3146 24.9652 19.9778C25.392 20.4128 25.6274 20.8621 25.6655 21.3114C25.7285 23.0752 23.1188 25.2883 22.6801 25.5391C22.0988 25.9563 21.4235 26.1667 20.6626 26.1667C19.8862 26.1667 19.0219 25.948 18.0767 25.5082C12.9549 23.3795 5.04873 15.4743 2.98123 10.4109C2.12284 8.52584 2.1169 6.97236 2.96577 5.8028C3.3058 5.25487 5.44463 2.76242 7.17448 2.83492C7.6334 2.87415 8.08161 3.10949 8.51913 3.53619C9.18254 4.18515 11.4105 6.98663 11.5568 7.68194C11.7173 8.45571 11.3642 9.06902 11.0527 9.60982L11.0523 9.61055C10.7326 10.1665 10.4559 10.6477 10.6782 11.2608C11.9384 14.3475 14.151 16.5594 17.2504 17.8241C17.8544 18.0428 18.3347 17.7658 18.8899 17.4449L18.9027 17.4376Z" fill="#1D1919"/>
</g>
</g>
</svg>
