<svg width="18" height="19" viewBox="0 0 18 19" fill="none" xmlns="http://www.w3.org/2000/svg">
<g clip-path="url(#clip0_12_176)">
<path d="M10.8102 10.2499L15.8689 15.3086C17.0774 13.8821 17.8094 12.1132 17.9622 10.2499H10.8102Z" fill="#997A2F"/>
<path d="M8.46944 10.0303L8.24969 9.8105V0.537506C6.83654 0.653308 5.47075 1.10135 4.26361 1.84513C3.05647 2.58891 2.04214 3.60738 1.30328 4.81754C0.564423 6.0277 0.12194 7.3953 0.0118917 8.80891C-0.0981564 10.2225 0.127344 11.6421 0.670017 12.952C1.21269 14.262 2.05718 15.4251 3.13467 16.3468C4.21216 17.2684 5.49216 17.9224 6.87036 18.2555C8.24856 18.5887 9.68596 18.5914 11.0654 18.2636C12.4449 17.9358 13.7274 17.2867 14.8084 16.3693L8.46944 10.0303Z" fill="#997A2F"/>
<path d="M9.75024 8.75001H17.9627C17.7857 6.63116 16.8636 4.64359 15.3601 3.14012C13.8567 1.63665 11.8691 0.714549 9.75024 0.537506V8.75001Z" fill="#997A2F"/>
</g>
<defs>
<clipPath id="clip0_12_176">
<rect width="18" height="18" fill="white" transform="translate(0 0.5)"/>
</clipPath>
</defs>
</svg>
