<svg width="18" height="19" viewBox="0 0 18 19" fill="none" xmlns="http://www.w3.org/2000/svg">
<g clip-path="url(#clip0_12_204)">
<path d="M9.75 10.9999V12.4999H8.25V10.9999H0V18.4999H18V10.9999H9.75Z" fill="#997A2F"/>
<path d="M18 9.5V5.75C18 5.15326 17.7629 4.58097 17.341 4.15901C16.919 3.73705 16.3467 3.5 15.75 3.5H13.5V2C13.5 1.60218 13.342 1.22064 13.0607 0.93934C12.7794 0.658035 12.3978 0.5 12 0.5H6C5.60218 0.5 5.22064 0.658035 4.93934 0.93934C4.65804 1.22064 4.5 1.60218 4.5 2V3.5H2.25C1.65326 3.5 1.08097 3.73705 0.65901 4.15901C0.237053 4.58097 0 5.15326 0 5.75L0 9.5H18ZM6 2H12V3.5H6V2Z" fill="#997A2F"/>
</g>
<defs>
<clipPath id="clip0_12_204">
<rect width="18" height="18" fill="white" transform="translate(0 0.5)"/>
</clipPath>
</defs>
</svg>
