<svg width="18" height="19" viewBox="0 0 18 19" fill="none" xmlns="http://www.w3.org/2000/svg">
<g clip-path="url(#clip0_12_66)">
<path d="M7.371 15.5H3V11.129L3.4395 10.6895L13.629 0.5H2.25C1.65326 0.5 1.08097 0.737053 0.65901 1.15901C0.237053 1.58097 0 2.15326 0 2.75L0 18.5H12.75V13.25H18V4.871L7.371 15.5Z" fill="#997A2F"/>
<path d="M14.2499 18.0607L17.5604 14.7502H14.2499V18.0607Z" fill="#997A2F"/>
<path d="M4.5 14H6.75L17.5343 3.21575C17.8326 2.91738 18.0002 2.5127 18.0002 2.09075C18.0002 1.66879 17.8326 1.26411 17.5343 0.965746C17.2359 0.667378 16.8312 0.499756 16.4093 0.499756C15.9873 0.499756 15.5826 0.667378 15.2843 0.965746L4.5 11.75V14Z" fill="#997A2F"/>
</g>
<defs>
<clipPath id="clip0_12_66">
<rect width="18" height="18" fill="white" transform="translate(0 0.5)"/>
</clipPath>
</defs>
</svg>
