<svg width="18" height="19" viewBox="0 0 18 19" fill="none" xmlns="http://www.w3.org/2000/svg">
<g clip-path="url(#clip0_12_50)">
<path d="M18 8.00001V6.43176C18.0001 6.02754 17.8913 5.63077 17.685 5.28314C17.4787 4.93552 17.1826 4.64988 16.8278 4.45626L10.0778 0.774513C9.74732 0.593657 9.37669 0.498863 9 0.498863C8.62331 0.498863 8.25268 0.593657 7.92225 0.774513L1.17225 4.45626C0.81742 4.64988 0.521303 4.93552 0.315025 5.28314C0.108746 5.63077 -7.47784e-05 6.02754 3.85528e-08 6.43176V8.00001H2.25V14.75H0.75V17H3.85528e-08V18.5H18V17H17.25V14.75H15.75V8.00001H18ZM10.5 8.00001V14.75H7.5V8.00001H10.5ZM3.75 8.00001H6V14.75H3.75V8.00001ZM14.25 14.75H12V8.00001H14.25V14.75Z" fill="#997A2F"/>
</g>
<defs>
<clipPath id="clip0_12_50">
<rect width="18" height="18" fill="white" transform="translate(0 0.5)"/>
</clipPath>
</defs>
</svg>
