<svg width="18" height="19" viewBox="0 0 18 19" fill="none" xmlns="http://www.w3.org/2000/svg">
<g clip-path="url(#clip0_12_166)">
<path d="M10.5 5.75015C10.5 6.04682 10.4121 6.33683 10.2472 6.58351C10.0824 6.83018 9.84814 7.02244 9.57406 7.13597C9.29997 7.2495 8.99837 7.27921 8.7074 7.22133C8.41642 7.16345 8.14915 7.02059 7.93937 6.81081C7.72959 6.60103 7.58673 6.33376 7.52885 6.04279C7.47097 5.75182 7.50068 5.45022 7.61421 5.17613C7.72774 4.90204 7.92 4.66777 8.16668 4.50295C8.41335 4.33813 8.70336 4.25015 9.00003 4.25015C9.39786 4.25015 9.77939 4.40819 10.0607 4.68949C10.342 4.9708 10.5 5.35233 10.5 5.75015ZM12.7125 9.4679L9.00003 13.1002L5.29353 9.47315C4.55792 8.73984 4.05636 7.8048 3.85232 6.78634C3.64828 5.76789 3.75093 4.7118 4.14728 3.75171C4.54363 2.79161 5.21586 1.97066 6.07893 1.39273C6.94199 0.814806 7.95709 0.505877 8.99578 0.505037C10.0345 0.504197 11.0501 0.811483 11.9141 1.38801C12.7781 1.96454 13.4516 2.78441 13.8495 3.74386C14.2474 4.70331 14.3518 5.75924 14.1494 6.77802C13.947 7.7968 13.447 8.73265 12.7125 9.46715V9.4679ZM12 5.75015C12 5.15681 11.8241 4.57679 11.4944 4.08344C11.1648 3.59009 10.6963 3.20558 10.1481 2.97851C9.5999 2.75145 8.9967 2.69204 8.41476 2.8078C7.83282 2.92355 7.29827 3.20927 6.87871 3.62883C6.45915 4.04839 6.17343 4.58294 6.05767 5.16488C5.94192 5.74682 6.00133 6.35002 6.22839 6.8982C6.45545 7.44638 6.83997 7.91492 7.33332 8.24456C7.82667 8.57421 8.40669 8.75015 9.00003 8.75015C9.79568 8.75015 10.5587 8.43408 11.1214 7.87147C11.684 7.30886 12 6.5458 12 5.75015ZM16.4003 8.4599L15.324 8.0999C14.9891 9.01242 14.4599 9.84129 13.773 10.5292L9.00003 15.2002L4.24503 10.5502C3.3424 9.65087 2.71309 8.51421 2.43003 7.2719C2.12083 7.24344 1.8091 7.27998 1.51487 7.37918C1.22064 7.47837 0.950415 7.63803 0.721562 7.84788C0.492709 8.05773 0.31029 8.31314 0.186028 8.5977C0.0617657 8.88225 -0.00159056 9.18965 3.03335e-05 9.50015V16.8142L5.98728 18.5249L12.0023 17.0249L18.0023 18.4859V10.6124C18.002 10.129 17.846 9.65859 17.5575 9.27077C17.2689 8.88295 16.8632 8.59837 16.4003 8.45915V8.4599Z" fill="#997A2F"/>
</g>
<defs>
<clipPath id="clip0_12_166">
<rect width="18" height="18" fill="white" transform="translate(0 0.5)"/>
</clipPath>
</defs>
</svg>
