<svg width="18" height="19" viewBox="0 0 18 19" fill="none" xmlns="http://www.w3.org/2000/svg">
<g clip-path="url(#clip0_12_154)">
<path d="M5.25 16.2501V18.5001H2.25V16.2501H5.25ZM12.75 16.2501V18.5001H15.75V16.2501H12.75ZM17.4158 8.75006C17.2747 8.21156 17.1157 7.67831 16.9215 7.15181L15.3135 2.73131C15.1551 2.29782 14.8675 1.92336 14.4896 1.65847C14.1116 1.39359 13.6615 1.25104 13.2 1.25006H4.8C4.33848 1.25104 3.88836 1.39359 3.51042 1.65847C3.13247 1.92336 2.84489 2.29782 2.6865 2.73131L1.0785 7.15181C0.88725 7.67831 0.72525 8.21156 0.58425 8.75006H17.4158ZM18 13.2741V14.7501H0V13.2741C0.000852208 12.2605 0.0876633 11.2489 0.2595 10.2501H17.7405C17.9123 11.2489 17.9991 12.2605 18 13.2741ZM3.75 11.7501C3.55109 11.7501 3.36032 11.8291 3.21967 11.9697C3.07902 12.1104 3 12.3011 3 12.5001C3 12.699 3.07902 12.8897 3.21967 13.0304C3.36032 13.171 3.55109 13.2501 3.75 13.2501C3.94891 13.2501 4.13968 13.171 4.28033 13.0304C4.42098 12.8897 4.5 12.699 4.5 12.5001C4.5 12.3011 4.42098 12.1104 4.28033 11.9697C4.13968 11.8291 3.94891 11.7501 3.75 11.7501ZM14.25 11.7501C14.0511 11.7501 13.8603 11.8291 13.7197 11.9697C13.579 12.1104 13.5 12.3011 13.5 12.5001C13.5 12.699 13.579 12.8897 13.7197 13.0304C13.8603 13.171 14.0511 13.2501 14.25 13.2501C14.4489 13.2501 14.6397 13.171 14.7803 13.0304C14.921 12.8897 15 12.699 15 12.5001C15 12.3011 14.921 12.1104 14.7803 11.9697C14.6397 11.8291 14.4489 11.7501 14.25 11.7501Z" fill="#997A2F"/>
</g>
<defs>
<clipPath id="clip0_12_154">
<rect width="18" height="18" fill="white" transform="translate(0 0.5)"/>
</clipPath>
</defs>
</svg>
